<?xml version="1.0" standalone="no"?>
<!DOCTYPE svg PUBLIC "-//W3C//DTD SVG 20010904//EN"
 "http://www.w3.org/TR/2001/REC-SVG-20010904/DTD/svg10.dtd">
<svg version="1.0" xmlns="http://www.w3.org/2000/svg"
 width="778.000000pt" height="548.000000pt" viewBox="0 0 778.000000 548.000000"
 preserveAspectRatio="xMidYMid meet">

<g transform="translate(0.000000,548.000000) scale(0.100000,-0.100000)"
fill="#fff" stroke="none">
<path d="M3700 5009 c-107 -13 -184 -31 -202 -47 -22 -19 -23 -60 -2 -91 15
-20 23 -23 63 -18 316 36 336 38 456 27 342 -31 625 -142 880 -345 253 -202
431 -456 530 -759 19 -59 35 -115 35 -124 0 -26 36 -79 59 -87 21 -6 60 9 73
29 22 32 -13 179 -79 341 -192 468 -565 819 -1053 993 -49 18 -99 31 -235 62
-124 29 -377 38 -525 19z"/>
<path d="M5406 4895 c-13 -10 -20 -27 -20 -50 0 -29 10 -45 55 -93 219 -227
393 -517 493 -823 33 -102 58 -218 86 -400 13 -86 13 -421 -1 -512 -15 -108
-49 -276 -65 -327 -8 -25 -19 -61 -25 -80 -84 -272 -259 -566 -481 -807 -62
-67 -64 -109 -7 -139 37 -19 48 -13 124 68 221 231 409 555 506 873 6 22 16
51 20 65 16 49 51 237 65 350 17 139 18 370 3 494 -12 100 -54 321 -71 376 -6
19 -14 46 -19 60 -100 324 -288 645 -513 878 -84 86 -109 98 -150 67z"/>
<path d="M2249 4833 c-253 -263 -462 -644 -545 -993 -8 -36 -19 -83 -24 -105
-57 -246 -57 -674 0 -920 32 -138 42 -178 64 -245 83 -259 242 -545 420 -758
140 -167 190 -199 236 -150 33 36 25 67 -34 128 -43 45 -130 150 -199 240
-138 180 -283 500 -341 752 -42 182 -50 261 -50 493 0 231 8 313 50 490 46
200 123 393 233 589 61 108 205 300 298 396 48 50 57 94 25 123 -36 33 -73 22
-133 -40z"/>
<path d="M3740 4389 c-473 -75 -836 -420 -941 -894 -20 -91 -17 -361 4 -455
84 -356 309 -637 630 -785 481 -222 1042 -80 1363 345 217 286 282 665 173
1015 -144 466 -589 789 -1079 784 -52 -1 -120 -5 -150 -10z m326 -140 c91 -16
191 -49 277 -92 82 -41 215 -135 257 -183 158 -178 219 -297 272 -524 21 -90
15 -299 -12 -405 -110 -445 -504 -755 -958 -755 -205 0 -390 57 -562 173 -60
41 -161 138 -220 212 -143 180 -229 477 -200 694 21 161 48 249 118 381 131
249 396 443 677 495 87 16 271 19 351 4z"/>
<path d="M3957 4053 c-13 -12 -7 -32 21 -75 48 -72 57 -106 56 -203 0 -111
-28 -181 -101 -252 -148 -147 -379 -144 -522 6 -37 39 -91 144 -91 177 0 26
-22 46 -42 39 -20 -8 -92 -137 -116 -210 -31 -91 -42 -158 -42 -248 0 -376
255 -695 620 -778 75 -17 271 -15 340 4 186 50 329 143 442 287 38 47 99 158
112 200 39 130 46 172 46 279 0 170 -34 286 -125 426 -75 114 -151 189 -260
252 -111 65 -312 122 -338 96z m48 -787 c12 -8 30 -32 40 -52 16 -34 16 -42 4
-78 -17 -48 -67 -86 -114 -86 -22 0 -44 11 -71 34 -36 31 -39 38 -39 84 0 42
5 56 29 81 41 43 101 50 151 17z"/>
<path d="M2250 2983 c-28 -10 -50 -36 -50 -60 0 -13 9 -58 20 -101 81 -306
263 -608 496 -825 201 -185 461 -331 729 -406 214 -59 468 -76 685 -46 136 20
167 30 185 64 12 25 12 31 -5 59 -23 37 -34 39 -165 17 -51 -8 -156 -15 -243
-15 -441 0 -826 161 -1143 479 -195 195 -328 426 -403 696 -16 56 -33 108 -40
117 -13 18 -45 28 -66 21z"/>
<path d="M2313 963 c-20 -14 -23 -24 -23 -87 0 -39 -4 -76 -8 -83 -4 -6 -34
-13 -67 -15 -56 -3 -60 -4 -60 -28 0 -24 4 -25 60 -28 33 -2 63 -9 67 -15 4
-7 8 -115 8 -240 0 -250 5 -275 57 -295 15 -6 51 -12 78 -12 87 -3 87 -3 83
28 -3 26 -6 27 -60 30 -88 5 -88 4 -88 268 0 253 -8 234 96 234 65 0 65 0 62
28 -3 26 -5 27 -78 32 l-75 5 -5 94 c-3 52 -9 96 -15 97 -5 2 -20 -4 -32 -13z"/>
<path d="M3510 965 c-23 -12 -25 -20 -30 -97 l-5 -83 -62 -3 c-63 -3 -79 -15
-67 -47 4 -10 21 -15 54 -15 85 0 80 17 80 -247 0 -203 2 -239 17 -264 21 -35
52 -48 123 -49 83 -2 82 -3 78 28 -3 26 -6 27 -60 30 -88 5 -88 5 -88 258 0
117 3 219 6 228 5 13 22 16 80 16 l74 0 0 30 0 29 -77 3 -78 3 -3 90 c-2 49
-6 93 -10 97 -4 4 -18 1 -32 -7z"/>
<path d="M7410 965 c-23 -12 -25 -21 -30 -97 l-5 -83 -60 -5 c-56 -5 -60 -7
-60 -30 0 -22 5 -25 40 -28 92 -6 83 20 87 -258 l3 -246 33 -29 c29 -26 40
-29 97 -29 36 0 68 0 73 0 4 0 7 12 7 28 0 26 -3 27 -51 30 -86 5 -85 3 -82
268 l3 229 75 5 c72 5 75 6 75 30 0 24 -2 25 -77 28 l-77 3 -3 96 c-2 53 -7
98 -13 99 -5 2 -21 -3 -35 -11z"/>
<path d="M167 942 c-10 -10 -17 -30 -17 -44 0 -48 18 -52 195 -49 l163 2 7
-97 c12 -155 1 -413 -18 -451 -23 -45 -75 -73 -132 -73 -50 0 -50 0 -149 113
-28 31 -57 35 -81 10 -23 -22 -13 -64 28 -121 70 -98 155 -137 247 -113 28 7
64 20 80 27 45 23 108 98 121 146 7 27 12 135 13 298 l1 255 63 5 c82 7 110
38 82 91 -10 18 -24 19 -299 19 -266 0 -289 -1 -304 -18z"/>
<path d="M6756 944 c-21 -20 -20 -58 0 -75 9 -8 40 -16 68 -19 l51 -5 3 -279
c2 -217 -1 -281 -10 -288 -7 -4 -32 -8 -55 -8 -67 0 -95 -48 -53 -90 18 -18
33 -20 168 -20 160 0 192 9 192 54 0 38 -21 55 -75 58 l-50 3 0 285 0 285 25
3 c69 7 100 27 100 62 0 44 -22 50 -190 50 -131 0 -161 -3 -174 -16z"/>
<path d="M2880 936 c-61 -16 -110 -47 -146 -93 -66 -84 -73 -157 -21 -224 42
-55 101 -85 217 -110 139 -29 195 -71 193 -145 -2 -79 -72 -128 -168 -120 -71
6 -112 22 -180 70 -27 20 -56 36 -62 36 -18 0 -53 -37 -53 -55 0 -25 61 -85
113 -112 186 -94 366 -61 439 81 33 62 30 158 -5 213 -47 75 -106 106 -270
143 -86 20 -147 58 -147 92 0 38 46 85 105 107 67 25 94 26 176 5 69 -18 102
-10 114 25 10 33 -12 58 -70 80 -64 24 -163 27 -235 7z"/>
<path d="M1700 785 c-101 -33 -153 -110 -130 -195 18 -65 50 -83 298 -161 101
-32 141 -84 109 -145 -20 -40 -45 -58 -93 -72 -119 -34 -224 7 -254 99 -13 39
-45 60 -69 44 -24 -14 1 -99 42 -143 49 -53 93 -67 212 -67 94 0 116 3 152 22
58 31 86 74 91 141 9 104 -46 155 -218 202 -153 42 -200 70 -200 119 0 63 58
101 155 101 89 0 151 -35 170 -98 5 -19 13 -23 38 -20 28 3 32 6 30 31 -3 42
-52 104 -102 128 -58 27 -170 34 -231 14z"/>
<path d="M4065 793 c-28 -7 -84 -47 -101 -72 -22 -31 -32 -26 -36 17 -3 35 -5
37 -38 37 l-35 0 -3 -303 -2 -302 25 -12 c49 -22 53 -7 57 216 l3 203 30 49
c46 73 85 96 163 93 70 -3 88 7 78 44 -8 33 -73 47 -141 30z"/>
<path d="M4476 784 c-59 -19 -131 -88 -166 -159 -22 -44 -25 -63 -24 -160 0
-95 3 -117 24 -160 27 -55 83 -115 132 -142 51 -27 209 -25 263 4 68 36 135
122 135 173 0 16 -6 20 -30 20 -24 0 -33 -7 -49 -37 -27 -54 -57 -82 -108
-104 -73 -31 -144 -22 -212 29 -40 30 -83 121 -79 166 l3 31 248 3 247 2 0 39
c0 42 -33 152 -57 191 -26 40 -69 78 -110 95 -56 24 -158 28 -217 9z m187 -70
c69 -35 105 -88 110 -159 l2 -40 -207 -3 c-232 -3 -219 -7 -197 69 14 45 60
104 103 130 40 24 144 26 189 3z"/>
<path d="M5185 791 c-83 -23 -135 -62 -166 -123 -23 -45 -19 -58 20 -58 21 0
34 9 52 37 41 64 80 83 168 83 58 0 84 -5 109 -20 49 -30 73 -76 70 -135 l-3
-50 -130 -6 c-140 -7 -173 -14 -240 -53 -73 -43 -108 -153 -70 -225 21 -41 69
-79 118 -92 91 -24 227 11 288 75 36 38 49 33 49 -18 0 -47 18 -64 54 -50 14
5 16 31 16 215 0 114 -5 231 -11 260 -13 60 -63 122 -118 145 -42 18 -163 27
-206 15z m255 -381 c0 -61 -17 -96 -66 -140 -110 -96 -269 -93 -310 7 -31 73
28 155 125 174 20 4 84 7 144 8 l107 1 0 -50z"/>
<path d="M5875 781 c-22 -10 -49 -28 -59 -40 -24 -26 -36 -27 -36 -2 0 25 -24
43 -52 39 l-23 -3 -3 -304 c-2 -311 -1 -320 35 -321 6 0 19 7 27 16 14 13 16
49 16 232 0 242 3 252 73 306 27 20 45 26 86 26 58 0 95 -17 126 -58 18 -25
20 -45 23 -264 4 -255 6 -265 56 -252 l26 6 0 227 0 227 26 41 c15 22 39 48
54 57 40 23 127 21 168 -4 59 -36 66 -68 70 -320 2 -124 7 -229 11 -233 5 -4
20 -5 35 -1 l26 6 0 224 c0 257 -6 288 -65 350 -84 88 -222 83 -311 -12 l-33
-35 -43 45 c-64 66 -153 84 -233 47z"/>
<path d="M902 771 c-18 -11 -12 -436 8 -496 17 -54 75 -110 130 -125 94 -25
226 9 258 66 13 24 32 8 32 -26 0 -30 21 -44 52 -35 17 6 18 21 16 313 l-3
307 -30 0 -30 0 -5 -215 c-6 -231 -7 -238 -64 -298 -77 -82 -193 -81 -260 2
l-31 38 -5 236 -5 237 -25 3 c-14 1 -31 -2 -38 -7z"/>
</g>
</svg>
